<?xml version="1.0" standalone="no"?>
<!DOCTYPE svg PUBLIC "-//W3C//DTD SVG 20010904//EN"
 "http://www.w3.org/TR/2001/REC-SVG-20010904/DTD/svg10.dtd">
<svg version="1.0" xmlns="http://www.w3.org/2000/svg"
 width="1280.000000pt" height="640.000000pt" viewBox="0 0 1280.000000 640.000000"
 preserveAspectRatio="xMidYMid meet">
<g transform="translate(0.000000,640.000000) scale(0.100000,-0.100000)"
fill="#212121" stroke="none">
<path d="M9850 4725 c-136 -17 -276 -45 -294 -59 -7 -6 -23 -64 -35 -128 -57
-310 -82 -736 -63 -1058 9 -148 9 -177 -3 -189 -11 -12 -64 -17 -232 -23 -120
-4 -319 -12 -443 -16 -147 -6 -952 -1 -2315 14 -1149 13 -2409 26 -2800 29
-610 4 -1174 18 -1211 30 -6 2 -47 54 -91 117 -148 209 -314 376 -493 495
-101 68 -181 107 -308 151 l-107 37 -185 0 c-177 -1 -912 -31 -975 -41 -26 -3
-53 -32 -158 -160 l-127 -155 139 -692 c194 -961 231 -1140 234 -1142 1 -1 85
-7 187 -13 102 -7 262 -17 355 -23 211 -14 546 -6 675 17 335 58 521 218 750
644 40 74 83 149 96 166 l23 31 258 6 c142 3 611 1 1043 -3 432 -5 1478 -16
2325 -25 847 -9 1707 -19 1910 -23 204 -4 447 -4 540 -1 277 11 782 29 890 32
l99 2 8 -35 c4 -19 23 -125 43 -235 20 -110 60 -312 90 -450 36 -167 50 -255
44 -266 -10 -20 20 -26 276 -59 841 -106 1594 20 2086 348 325 217 550 516
665 882 19 63 39 124 43 134 7 19 -60 223 -112 339 -76 169 -231 389 -378 537
-420 426 -1060 708 -1779 785 -165 18 -524 18 -670 0z m-8671 -1025 c432 -39
686 -202 863 -559 72 -142 80 -195 54 -320 -63 -297 -318 -469 -771 -521 -124
-14 -469 -10 -485 6 -6 6 -58 315 -115 685 -82 536 -101 677 -91 687 23 24
363 38 545 22z"/>
</g>
</svg>
